<svg width="973" height="462" viewBox="0 0 973 462" fill="none" xmlns="http://www.w3.org/2000/svg">
<g opacity="0.1">
<mask id="path-1-outside-1_641_1896" maskUnits="userSpaceOnUse" x="7.99414" y="-1" width="962" height="84" fill="black">
<rect fill="white" x="7.99414" y="-1" width="962" height="84"/>
<path d="M9.48934 79V2.17789H67.9839V17.5423H26.3902V33.8945H63.0453V49.2589H26.3902V79H9.48934ZM433.237 79L466.161 1.62917H481.745L514.668 79H496.999L489.976 61.7699H457.491L450.467 79H433.237ZM463.527 46.8445H483.94L473.733 21.9321L463.527 46.8445ZM957.286 81.3047L948.836 73.7322C942.032 78.122 934.423 80.317 926.009 80.317C914.302 80.317 904.572 76.4758 896.816 68.7936C889.134 61.1114 885.293 51.7099 885.293 40.5889C885.293 29.5412 889.171 20.1762 896.926 12.494C904.755 4.73864 914.522 0.860948 926.228 0.860948C937.934 0.860948 947.629 4.70205 955.311 12.3843C963.066 20.0665 966.944 29.468 966.944 40.5889C966.944 48.7101 964.676 56.0631 960.14 62.6479L968.041 69.3424L957.286 81.3047ZM926.228 64.733C929.813 64.733 933.179 64.038 936.325 62.6479L923.814 52.0025L934.569 39.9305L947.19 51.344C948.58 48.2712 949.275 44.6861 949.275 40.5889C949.275 33.8579 947.08 28.1511 942.69 23.4686C938.3 18.7861 932.74 16.4449 926.009 16.4449C919.278 16.4449 913.754 18.7861 909.437 23.4686C905.12 28.0779 902.962 33.7847 902.962 40.5889C902.962 47.32 905.157 53.0268 909.547 57.7093C913.937 62.3918 919.497 64.733 926.228 64.733Z"/>
</mask>
<path d="M9.48934 79H8.30998V80.1794H9.48934V79ZM9.48934 2.17789V0.998534H8.30998V2.17789H9.48934ZM67.9839 2.17789H69.1633V0.998534H67.9839V2.17789ZM67.9839 17.5423V18.7217H69.1633V17.5423H67.9839ZM26.3902 17.5423V16.363H25.2108V17.5423H26.3902ZM26.3902 33.8945H25.2108V35.0738H26.3902V33.8945ZM63.0453 33.8945H64.2247V32.7151H63.0453V33.8945ZM63.0453 49.2589V50.4382H64.2247V49.2589H63.0453ZM26.3902 49.2589V48.0795H25.2108V49.2589H26.3902ZM26.3902 79V80.1794H27.5696V79H26.3902ZM10.6687 79V2.17789H8.30998V79H10.6687ZM9.48934 3.35726H67.9839V0.998534H9.48934V3.35726ZM66.8045 2.17789V17.5423H69.1633V2.17789H66.8045ZM67.9839 16.363H26.3902V18.7217H67.9839V16.363ZM25.2108 17.5423V33.8945H27.5696V17.5423H25.2108ZM26.3902 35.0738H63.0453V32.7151H26.3902V35.0738ZM61.866 33.8945V49.2589H64.2247V33.8945H61.866ZM63.0453 48.0795H26.3902V50.4382H63.0453V48.0795ZM25.2108 49.2589V79H27.5696V49.2589H25.2108ZM26.3902 77.8206H9.48934V80.1794H26.3902V77.8206ZM433.237 79L432.152 78.5382L431.453 80.1794H433.237V79ZM466.161 1.62917V0.449805H465.381L465.076 1.16738L466.161 1.62917ZM481.745 1.62917L482.83 1.16738L482.524 0.449805H481.745V1.62917ZM514.668 79V80.1794H516.452L515.754 78.5382L514.668 79ZM496.999 79L495.907 79.4452L496.206 80.1794H496.999V79ZM489.976 61.7699L491.068 61.3247L490.768 60.5905H489.976V61.7699ZM457.491 61.7699V60.5905H456.698L456.399 61.3247L457.491 61.7699ZM450.467 79V80.1794H451.26L451.559 79.4452L450.467 79ZM463.527 46.8445L462.435 46.3974L461.769 48.0238H463.527V46.8445ZM483.94 46.8445V48.0238H485.697L485.031 46.3974L483.94 46.8445ZM473.733 21.9321L474.824 21.485L473.733 18.8213L472.642 21.485L473.733 21.9321ZM434.322 79.4618L467.246 2.09095L465.076 1.16738L432.152 78.5382L434.322 79.4618ZM466.161 2.80853H481.745V0.449805H466.161V2.80853ZM480.659 2.09095L513.583 79.4618L515.754 78.5382L482.83 1.16738L480.659 2.09095ZM514.668 77.8206H496.999V80.1794H514.668V77.8206ZM498.091 78.5548L491.068 61.3247L488.883 62.2151L495.907 79.4452L498.091 78.5548ZM489.976 60.5905H457.491V62.9493H489.976V60.5905ZM456.399 61.3247L449.375 78.5548L451.559 79.4452L458.583 62.2151L456.399 61.3247ZM450.467 77.8206H433.237V80.1794H450.467V77.8206ZM463.527 48.0238H483.94V45.6651H463.527V48.0238ZM485.031 46.3974L474.824 21.485L472.642 22.3793L482.848 47.2916L485.031 46.3974ZM472.642 21.485L462.435 46.3974L464.618 47.2916L474.824 22.3793L472.642 21.485ZM957.286 81.3047L956.499 82.183L957.376 82.9687L958.163 82.0932L957.286 81.3047ZM948.836 73.7322L949.623 72.8539L948.953 72.2533L948.196 72.7412L948.836 73.7322ZM896.816 68.7936L895.982 69.6276L895.986 69.6315L896.816 68.7936ZM896.926 12.494L897.756 13.3319L897.756 13.3319L896.926 12.494ZM955.311 12.3843L954.477 13.2182L954.481 13.2221L955.311 12.3843ZM960.14 62.6479L959.168 61.9788L958.563 62.8578L959.377 63.5477L960.14 62.6479ZM968.041 69.3424L968.918 70.1309L969.73 69.2277L968.804 68.4425L968.041 69.3424ZM936.325 62.6479L936.801 63.7266L938.52 62.9672L937.089 61.7497L936.325 62.6479ZM923.814 52.0025L922.933 51.218L922.131 52.1189L923.049 52.9007L923.814 52.0025ZM934.569 39.9305L935.36 39.0558L934.479 38.2588L933.688 39.146L934.569 39.9305ZM947.19 51.344L946.399 52.2188L947.598 53.3032L948.264 51.8301L947.19 51.344ZM942.69 23.4686L943.55 22.662L942.69 23.4686ZM909.437 23.4686L910.298 24.2748L910.304 24.268L909.437 23.4686ZM909.547 57.7093L908.686 58.5159L909.547 57.7093ZM958.073 80.4264L949.623 72.8539L948.049 74.6105L956.499 82.183L958.073 80.4264ZM948.196 72.7412C941.591 77.0031 934.205 79.1376 926.009 79.1376V81.4963C934.64 81.4963 942.473 79.241 949.475 74.7232L948.196 72.7412ZM926.009 79.1376C914.588 79.1376 905.164 75.4023 897.646 67.9558L895.986 69.6315C903.98 77.5494 914.016 81.4963 926.009 81.4963V79.1376ZM897.65 67.9597C890.195 60.5044 886.472 51.4054 886.472 40.5889H884.114C884.114 52.0144 888.073 61.7184 895.982 69.6276L897.65 67.9597ZM886.472 40.5889C886.472 29.8517 890.227 20.7896 897.756 13.3319L896.096 11.6561C888.114 19.5628 884.114 29.2307 884.114 40.5889H886.472ZM897.756 13.3319C905.349 5.80991 914.811 2.04031 926.228 2.04031V-0.318413C914.233 -0.318413 904.16 3.66736 896.096 11.6562L897.756 13.3319ZM926.228 2.04031C937.648 2.04031 947.034 5.77541 954.477 13.2182L956.145 11.5503C948.223 3.6287 938.22 -0.318413 926.228 -0.318413V2.04031ZM954.481 13.2221C962.008 20.6782 965.765 29.7761 965.765 40.5889H968.123C968.123 29.1599 964.124 19.4547 956.141 11.5464L954.481 13.2221ZM965.765 40.5889C965.765 48.4752 963.567 55.5941 959.168 61.9788L961.111 63.3169C965.785 56.5321 968.123 48.9451 968.123 40.5889H965.765ZM959.377 63.5477L967.279 70.2422L968.804 68.4425L960.902 61.748L959.377 63.5477ZM967.164 68.5539L956.409 80.5162L958.163 82.0932L968.918 70.1309L967.164 68.5539ZM926.228 65.9124C929.97 65.9124 933.499 65.1859 936.801 63.7266L935.848 61.5691C932.859 62.8901 929.656 63.5537 926.228 63.5537V65.9124ZM937.089 61.7497L924.578 51.1043L923.049 52.9007L935.561 63.5461L937.089 61.7497ZM924.694 52.787L935.449 40.715L933.688 39.146L922.933 51.218L924.694 52.787ZM933.778 40.8052L946.399 52.2188L947.981 50.4693L935.36 39.0558L933.778 40.8052ZM948.264 51.8301C949.737 48.5754 950.454 44.8185 950.454 40.5889H948.095C948.095 44.5538 947.423 47.967 946.115 50.8579L948.264 51.8301ZM950.454 40.5889C950.454 33.5743 948.156 27.5745 943.55 22.662L941.83 24.2752C946.004 28.7276 948.095 34.1414 948.095 40.5889H950.454ZM943.55 22.662C938.926 17.7289 933.048 15.2655 926.009 15.2655V17.6242C932.432 17.6242 937.675 19.8433 941.83 24.2752L943.55 22.662ZM926.009 15.2655C918.969 15.2655 913.124 17.7294 908.57 22.6692L910.304 24.268C914.384 19.8428 919.586 17.6242 926.009 17.6242V15.2655ZM908.576 22.6624C904.038 27.5081 901.783 33.5107 901.783 40.5889H904.141C904.141 34.0587 906.203 28.6477 910.298 24.2747L908.576 22.6624ZM901.783 40.5889C901.783 47.6036 904.081 53.6034 908.686 58.5159L910.407 56.9027C906.233 52.4502 904.141 47.0365 904.141 40.5889H901.783ZM908.686 58.5159C913.311 63.4489 919.189 65.9124 926.228 65.9124V63.5537C919.805 63.5537 914.562 61.3346 910.407 56.9027L908.686 58.5159Z" fill="white" mask="url(#path-1-outside-1_641_1896)"/>
<g opacity="0.8">
<mask id="path-3-outside-2_641_1896" maskUnits="userSpaceOnUse" x="7.99414" y="94" width="962" height="84" fill="black">
<rect fill="white" x="7.99414" y="94" width="962" height="84"/>
<path d="M9.48934 174V97.1779H67.9839V112.542H26.3902V128.894H63.0453V144.259H26.3902V174H9.48934ZM433.237 174L466.161 96.6292H481.745L514.668 174H496.999L489.976 156.77H457.491L450.467 174H433.237ZM463.527 141.844H483.94L473.733 116.932L463.527 141.844ZM957.286 176.305L948.836 168.732C942.032 173.122 934.423 175.317 926.009 175.317C914.302 175.317 904.572 171.476 896.816 163.794C889.134 156.111 885.293 146.71 885.293 135.589C885.293 124.541 889.171 115.176 896.926 107.494C904.755 99.7386 914.522 95.8609 926.228 95.8609C937.934 95.8609 947.629 99.7021 955.311 107.384C963.066 115.066 966.944 124.468 966.944 135.589C966.944 143.71 964.676 151.063 960.14 157.648L968.041 164.342L957.286 176.305ZM926.228 159.733C929.813 159.733 933.179 159.038 936.325 157.648L923.814 147.003L934.569 134.93L947.19 146.344C948.58 143.271 949.275 139.686 949.275 135.589C949.275 128.858 947.08 123.151 942.69 118.469C938.3 113.786 932.74 111.445 926.009 111.445C919.278 111.445 913.754 113.786 909.437 118.469C905.12 123.078 902.962 128.785 902.962 135.589C902.962 142.32 905.157 148.027 909.547 152.709C913.937 157.392 919.497 159.733 926.228 159.733Z"/>
</mask>
<path d="M9.48934 174H8.30998V175.179H9.48934V174ZM9.48934 97.1779V95.9985H8.30998V97.1779H9.48934ZM67.9839 97.1779H69.1633V95.9985H67.9839V97.1779ZM67.9839 112.542V113.722H69.1633V112.542H67.9839ZM26.3902 112.542V111.363H25.2108V112.542H26.3902ZM26.3902 128.894H25.2108V130.074H26.3902V128.894ZM63.0453 128.894H64.2247V127.715H63.0453V128.894ZM63.0453 144.259V145.438H64.2247V144.259H63.0453ZM26.3902 144.259V143.08H25.2108V144.259H26.3902ZM26.3902 174V175.179H27.5696V174H26.3902ZM10.6687 174V97.1779H8.30998V174H10.6687ZM9.48934 98.3573H67.9839V95.9985H9.48934V98.3573ZM66.8045 97.1779V112.542H69.1633V97.1779H66.8045ZM67.9839 111.363H26.3902V113.722H67.9839V111.363ZM25.2108 112.542V128.894H27.5696V112.542H25.2108ZM26.3902 130.074H63.0453V127.715H26.3902V130.074ZM61.866 128.894V144.259H64.2247V128.894H61.866ZM63.0453 143.08H26.3902V145.438H63.0453V143.08ZM25.2108 144.259V174H27.5696V144.259H25.2108ZM26.3902 172.821H9.48934V175.179H26.3902V172.821ZM433.237 174L432.152 173.538L431.453 175.179H433.237V174ZM466.161 96.6292V95.4498H465.381L465.076 96.1674L466.161 96.6292ZM481.745 96.6292L482.83 96.1674L482.524 95.4498H481.745V96.6292ZM514.668 174V175.179H516.452L515.754 173.538L514.668 174ZM496.999 174L495.907 174.445L496.206 175.179H496.999V174ZM489.976 156.77L491.068 156.325L490.768 155.591H489.976V156.77ZM457.491 156.77V155.591H456.698L456.399 156.325L457.491 156.77ZM450.467 174V175.179H451.26L451.559 174.445L450.467 174ZM463.527 141.844L462.435 141.397L461.769 143.024H463.527V141.844ZM483.94 141.844V143.024H485.697L485.031 141.397L483.94 141.844ZM473.733 116.932L474.824 116.485L473.733 113.821L472.642 116.485L473.733 116.932ZM434.322 174.462L467.246 97.091L465.076 96.1674L432.152 173.538L434.322 174.462ZM466.161 97.8085H481.745V95.4498H466.161V97.8085ZM480.659 97.091L513.583 174.462L515.754 173.538L482.83 96.1674L480.659 97.091ZM514.668 172.821H496.999V175.179H514.668V172.821ZM498.091 173.555L491.068 156.325L488.883 157.215L495.907 174.445L498.091 173.555ZM489.976 155.591H457.491V157.949H489.976V155.591ZM456.399 156.325L449.375 173.555L451.559 174.445L458.583 157.215L456.399 156.325ZM450.467 172.821H433.237V175.179H450.467V172.821ZM463.527 143.024H483.94V140.665H463.527V143.024ZM485.031 141.397L474.824 116.485L472.642 117.379L482.848 142.292L485.031 141.397ZM472.642 116.485L462.435 141.397L464.618 142.292L474.824 117.379L472.642 116.485ZM957.286 176.305L956.499 177.183L957.376 177.969L958.163 177.093L957.286 176.305ZM948.836 168.732L949.623 167.854L948.953 167.253L948.196 167.741L948.836 168.732ZM896.816 163.794L895.982 164.628L895.986 164.632L896.816 163.794ZM896.926 107.494L897.756 108.332L897.756 108.332L896.926 107.494ZM955.311 107.384L954.477 108.218L954.481 108.222L955.311 107.384ZM960.14 157.648L959.168 156.979L958.563 157.858L959.377 158.548L960.14 157.648ZM968.041 164.342L968.918 165.131L969.73 164.228L968.804 163.443L968.041 164.342ZM936.325 157.648L936.801 158.727L938.52 157.967L937.089 156.75L936.325 157.648ZM923.814 147.003L922.933 146.218L922.131 147.119L923.049 147.901L923.814 147.003ZM934.569 134.93L935.36 134.056L934.479 133.259L933.688 134.146L934.569 134.93ZM947.19 146.344L946.399 147.219L947.598 148.303L948.264 146.83L947.19 146.344ZM942.69 118.469L943.55 117.662L942.69 118.469ZM909.437 118.469L910.298 119.275L910.304 119.268L909.437 118.469ZM909.547 152.709L908.686 153.516L909.547 152.709ZM958.073 175.426L949.623 167.854L948.049 169.611L956.499 177.183L958.073 175.426ZM948.196 167.741C941.591 172.003 934.205 174.138 926.009 174.138V176.496C934.64 176.496 942.473 174.241 949.475 169.723L948.196 167.741ZM926.009 174.138C914.588 174.138 905.164 170.402 897.646 162.956L895.986 164.632C903.98 172.549 914.016 176.496 926.009 176.496V174.138ZM897.65 162.96C890.195 155.504 886.472 146.405 886.472 135.589H884.114C884.114 147.014 888.073 156.718 895.982 164.628L897.65 162.96ZM886.472 135.589C886.472 124.852 890.227 115.79 897.756 108.332L896.096 106.656C888.114 114.563 884.114 124.231 884.114 135.589H886.472ZM897.756 108.332C905.349 100.81 914.811 97.0403 926.228 97.0403V94.6816C914.233 94.6816 904.16 98.6674 896.096 106.656L897.756 108.332ZM926.228 97.0403C937.648 97.0403 947.034 100.775 954.477 108.218L956.145 106.55C948.223 98.6287 938.22 94.6816 926.228 94.6816V97.0403ZM954.481 108.222C962.008 115.678 965.765 124.776 965.765 135.589H968.123C968.123 124.16 964.124 114.455 956.141 106.546L954.481 108.222ZM965.765 135.589C965.765 143.475 963.567 150.594 959.168 156.979L961.111 158.317C965.785 151.532 968.123 143.945 968.123 135.589H965.765ZM959.377 158.548L967.279 165.242L968.804 163.443L960.902 156.748L959.377 158.548ZM967.164 163.554L956.409 175.516L958.163 177.093L968.918 165.131L967.164 163.554ZM926.228 160.912C929.97 160.912 933.499 160.186 936.801 158.727L935.848 156.569C932.859 157.89 929.656 158.554 926.228 158.554V160.912ZM937.089 156.75L924.578 146.104L923.049 147.901L935.561 158.546L937.089 156.75ZM924.694 147.787L935.449 135.715L933.688 134.146L922.933 146.218L924.694 147.787ZM933.778 135.805L946.399 147.219L947.981 145.469L935.36 134.056L933.778 135.805ZM948.264 146.83C949.737 143.575 950.454 139.818 950.454 135.589H948.095C948.095 139.554 947.423 142.967 946.115 145.858L948.264 146.83ZM950.454 135.589C950.454 128.574 948.156 122.575 943.55 117.662L941.83 119.275C946.004 123.728 948.095 129.141 948.095 135.589H950.454ZM943.55 117.662C938.926 112.729 933.048 110.265 926.009 110.265V112.624C932.432 112.624 937.675 114.843 941.83 119.275L943.55 117.662ZM926.009 110.265C918.969 110.265 913.124 112.729 908.57 117.669L910.304 119.268C914.384 114.843 919.586 112.624 926.009 112.624V110.265ZM908.576 117.662C904.038 122.508 901.783 128.511 901.783 135.589H904.141C904.141 129.059 906.203 123.648 910.298 119.275L908.576 117.662ZM901.783 135.589C901.783 142.604 904.081 148.603 908.686 153.516L910.407 151.903C906.233 147.45 904.141 142.036 904.141 135.589H901.783ZM908.686 153.516C913.311 158.449 919.189 160.912 926.228 160.912V158.554C919.805 158.554 914.562 156.335 910.407 151.903L908.686 153.516Z" fill="white" mask="url(#path-3-outside-2_641_1896)"/>
</g>
<g opacity="0.6">
<mask id="path-5-outside-3_641_1896" maskUnits="userSpaceOnUse" x="7.99414" y="189" width="962" height="84" fill="black">
<rect fill="white" x="7.99414" y="189" width="962" height="84"/>
<path d="M9.48934 269V192.178H67.9839V207.542H26.3902V223.894H63.0453V239.259H26.3902V269H9.48934ZM433.237 269L466.161 191.629H481.745L514.668 269H496.999L489.976 251.77H457.491L450.467 269H433.237ZM463.527 236.844H483.94L473.733 211.932L463.527 236.844ZM957.286 271.305L948.836 263.732C942.032 268.122 934.423 270.317 926.009 270.317C914.302 270.317 904.572 266.476 896.816 258.794C889.134 251.111 885.293 241.71 885.293 230.589C885.293 219.541 889.171 210.176 896.926 202.494C904.755 194.739 914.522 190.861 926.228 190.861C937.934 190.861 947.629 194.702 955.311 202.384C963.066 210.066 966.944 219.468 966.944 230.589C966.944 238.71 964.676 246.063 960.14 252.648L968.041 259.342L957.286 271.305ZM926.228 254.733C929.813 254.733 933.179 254.038 936.325 252.648L923.814 242.003L934.569 229.93L947.19 241.344C948.58 238.271 949.275 234.686 949.275 230.589C949.275 223.858 947.08 218.151 942.69 213.469C938.3 208.786 932.74 206.445 926.009 206.445C919.278 206.445 913.754 208.786 909.437 213.469C905.12 218.078 902.962 223.785 902.962 230.589C902.962 237.32 905.157 243.027 909.547 247.709C913.937 252.392 919.497 254.733 926.228 254.733Z"/>
</mask>
<path d="M9.48934 269H8.30998V270.179H9.48934V269ZM9.48934 192.178V190.999H8.30998V192.178H9.48934ZM67.9839 192.178H69.1633V190.999H67.9839V192.178ZM67.9839 207.542V208.722H69.1633V207.542H67.9839ZM26.3902 207.542V206.363H25.2108V207.542H26.3902ZM26.3902 223.894H25.2108V225.074H26.3902V223.894ZM63.0453 223.894H64.2247V222.715H63.0453V223.894ZM63.0453 239.259V240.438H64.2247V239.259H63.0453ZM26.3902 239.259V238.08H25.2108V239.259H26.3902ZM26.3902 269V270.179H27.5696V269H26.3902ZM10.6687 269V192.178H8.30998V269H10.6687ZM9.48934 193.357H67.9839V190.999H9.48934V193.357ZM66.8045 192.178V207.542H69.1633V192.178H66.8045ZM67.9839 206.363H26.3902V208.722H67.9839V206.363ZM25.2108 207.542V223.894H27.5696V207.542H25.2108ZM26.3902 225.074H63.0453V222.715H26.3902V225.074ZM61.866 223.894V239.259H64.2247V223.894H61.866ZM63.0453 238.08H26.3902V240.438H63.0453V238.08ZM25.2108 239.259V269H27.5696V239.259H25.2108ZM26.3902 267.821H9.48934V270.179H26.3902V267.821ZM433.237 269L432.152 268.538L431.453 270.179H433.237V269ZM466.161 191.629V190.45H465.381L465.076 191.167L466.161 191.629ZM481.745 191.629L482.83 191.167L482.524 190.45H481.745V191.629ZM514.668 269V270.179H516.452L515.754 268.538L514.668 269ZM496.999 269L495.907 269.445L496.206 270.179H496.999V269ZM489.976 251.77L491.068 251.325L490.768 250.591H489.976V251.77ZM457.491 251.77V250.591H456.698L456.399 251.325L457.491 251.77ZM450.467 269V270.179H451.26L451.559 269.445L450.467 269ZM463.527 236.844L462.435 236.397L461.769 238.024H463.527V236.844ZM483.94 236.844V238.024H485.697L485.031 236.397L483.94 236.844ZM473.733 211.932L474.824 211.485L473.733 208.821L472.642 211.485L473.733 211.932ZM434.322 269.462L467.246 192.091L465.076 191.167L432.152 268.538L434.322 269.462ZM466.161 192.809H481.745V190.45H466.161V192.809ZM480.659 192.091L513.583 269.462L515.754 268.538L482.83 191.167L480.659 192.091ZM514.668 267.821H496.999V270.179H514.668V267.821ZM498.091 268.555L491.068 251.325L488.883 252.215L495.907 269.445L498.091 268.555ZM489.976 250.591H457.491V252.949H489.976V250.591ZM456.399 251.325L449.375 268.555L451.559 269.445L458.583 252.215L456.399 251.325ZM450.467 267.821H433.237V270.179H450.467V267.821ZM463.527 238.024H483.94V235.665H463.527V238.024ZM485.031 236.397L474.824 211.485L472.642 212.379L482.848 237.292L485.031 236.397ZM472.642 211.485L462.435 236.397L464.618 237.292L474.824 212.379L472.642 211.485ZM957.286 271.305L956.499 272.183L957.376 272.969L958.163 272.093L957.286 271.305ZM948.836 263.732L949.623 262.854L948.953 262.253L948.196 262.741L948.836 263.732ZM896.816 258.794L895.982 259.628L895.986 259.632L896.816 258.794ZM896.926 202.494L897.756 203.332L897.756 203.332L896.926 202.494ZM955.311 202.384L954.477 203.218L954.481 203.222L955.311 202.384ZM960.14 252.648L959.168 251.979L958.563 252.858L959.377 253.548L960.14 252.648ZM968.041 259.342L968.918 260.131L969.73 259.228L968.804 258.443L968.041 259.342ZM936.325 252.648L936.801 253.727L938.52 252.967L937.089 251.75L936.325 252.648ZM923.814 242.003L922.933 241.218L922.131 242.119L923.049 242.901L923.814 242.003ZM934.569 229.93L935.36 229.056L934.479 228.259L933.688 229.146L934.569 229.93ZM947.19 241.344L946.399 242.219L947.598 243.303L948.264 241.83L947.19 241.344ZM942.69 213.469L943.55 212.662L942.69 213.469ZM909.437 213.469L910.298 214.275L910.304 214.268L909.437 213.469ZM909.547 247.709L908.686 248.516L909.547 247.709ZM958.073 270.426L949.623 262.854L948.049 264.611L956.499 272.183L958.073 270.426ZM948.196 262.741C941.591 267.003 934.205 269.138 926.009 269.138V271.496C934.64 271.496 942.473 269.241 949.475 264.723L948.196 262.741ZM926.009 269.138C914.588 269.138 905.164 265.402 897.646 257.956L895.986 259.632C903.98 267.549 914.016 271.496 926.009 271.496V269.138ZM897.65 257.96C890.195 250.504 886.472 241.405 886.472 230.589H884.114C884.114 242.014 888.073 251.718 895.982 259.628L897.65 257.96ZM886.472 230.589C886.472 219.852 890.227 210.79 897.756 203.332L896.096 201.656C888.114 209.563 884.114 219.231 884.114 230.589H886.472ZM897.756 203.332C905.349 195.81 914.811 192.04 926.228 192.04V189.682C914.233 189.682 904.16 193.667 896.096 201.656L897.756 203.332ZM926.228 192.04C937.648 192.04 947.034 195.775 954.477 203.218L956.145 201.55C948.223 193.629 938.22 189.682 926.228 189.682V192.04ZM954.481 203.222C962.008 210.678 965.765 219.776 965.765 230.589H968.123C968.123 219.16 964.124 209.455 956.141 201.546L954.481 203.222ZM965.765 230.589C965.765 238.475 963.567 245.594 959.168 251.979L961.111 253.317C965.785 246.532 968.123 238.945 968.123 230.589H965.765ZM959.377 253.548L967.279 260.242L968.804 258.443L960.902 251.748L959.377 253.548ZM967.164 258.554L956.409 270.516L958.163 272.093L968.918 260.131L967.164 258.554ZM926.228 255.912C929.97 255.912 933.499 255.186 936.801 253.727L935.848 251.569C932.859 252.89 929.656 253.554 926.228 253.554V255.912ZM937.089 251.75L924.578 241.104L923.049 242.901L935.561 253.546L937.089 251.75ZM924.694 242.787L935.449 230.715L933.688 229.146L922.933 241.218L924.694 242.787ZM933.778 230.805L946.399 242.219L947.981 240.469L935.36 229.056L933.778 230.805ZM948.264 241.83C949.737 238.575 950.454 234.818 950.454 230.589H948.095C948.095 234.554 947.423 237.967 946.115 240.858L948.264 241.83ZM950.454 230.589C950.454 223.574 948.156 217.575 943.55 212.662L941.83 214.275C946.004 218.728 948.095 224.141 948.095 230.589H950.454ZM943.55 212.662C938.926 207.729 933.048 205.265 926.009 205.265V207.624C932.432 207.624 937.675 209.843 941.83 214.275L943.55 212.662ZM926.009 205.265C918.969 205.265 913.124 207.729 908.57 212.669L910.304 214.268C914.384 209.843 919.586 207.624 926.009 207.624V205.265ZM908.576 212.662C904.038 217.508 901.783 223.511 901.783 230.589H904.141C904.141 224.059 906.203 218.648 910.298 214.275L908.576 212.662ZM901.783 230.589C901.783 237.604 904.081 243.603 908.686 248.516L910.407 246.903C906.233 242.45 904.141 237.036 904.141 230.589H901.783ZM908.686 248.516C913.311 253.449 919.189 255.912 926.228 255.912V253.554C919.805 253.554 914.562 251.335 910.407 246.903L908.686 248.516Z" fill="white" mask="url(#path-5-outside-3_641_1896)"/>
</g>
<g opacity="0.4">
<mask id="path-7-outside-4_641_1896" maskUnits="userSpaceOnUse" x="7.99414" y="284" width="962" height="84" fill="black">
<rect fill="white" x="7.99414" y="284" width="962" height="84"/>
<path d="M9.48934 364V287.178H67.9839V302.542H26.3902V318.894H63.0453V334.259H26.3902V364H9.48934ZM433.237 364L466.161 286.629H481.745L514.668 364H496.999L489.976 346.77H457.491L450.467 364H433.237ZM463.527 331.844H483.94L473.733 306.932L463.527 331.844ZM957.286 366.305L948.836 358.732C942.032 363.122 934.423 365.317 926.009 365.317C914.302 365.317 904.572 361.476 896.816 353.794C889.134 346.111 885.293 336.71 885.293 325.589C885.293 314.541 889.171 305.176 896.926 297.494C904.755 289.739 914.522 285.861 926.228 285.861C937.934 285.861 947.629 289.702 955.311 297.384C963.066 305.066 966.944 314.468 966.944 325.589C966.944 333.71 964.676 341.063 960.14 347.648L968.041 354.342L957.286 366.305ZM926.228 349.733C929.813 349.733 933.179 349.038 936.325 347.648L923.814 337.003L934.569 324.93L947.19 336.344C948.58 333.271 949.275 329.686 949.275 325.589C949.275 318.858 947.08 313.151 942.69 308.469C938.3 303.786 932.74 301.445 926.009 301.445C919.278 301.445 913.754 303.786 909.437 308.469C905.12 313.078 902.962 318.785 902.962 325.589C902.962 332.32 905.157 338.027 909.547 342.709C913.937 347.392 919.497 349.733 926.228 349.733Z"/>
</mask>
<path d="M9.48934 364H8.30998V365.179H9.48934V364ZM9.48934 287.178V285.999H8.30998V287.178H9.48934ZM67.9839 287.178H69.1633V285.999H67.9839V287.178ZM67.9839 302.542V303.722H69.1633V302.542H67.9839ZM26.3902 302.542V301.363H25.2108V302.542H26.3902ZM26.3902 318.894H25.2108V320.074H26.3902V318.894ZM63.0453 318.894H64.2247V317.715H63.0453V318.894ZM63.0453 334.259V335.438H64.2247V334.259H63.0453ZM26.3902 334.259V333.08H25.2108V334.259H26.3902ZM26.3902 364V365.179H27.5696V364H26.3902ZM10.6687 364V287.178H8.30998V364H10.6687ZM9.48934 288.357H67.9839V285.999H9.48934V288.357ZM66.8045 287.178V302.542H69.1633V287.178H66.8045ZM67.9839 301.363H26.3902V303.722H67.9839V301.363ZM25.2108 302.542V318.894H27.5696V302.542H25.2108ZM26.3902 320.074H63.0453V317.715H26.3902V320.074ZM61.866 318.894V334.259H64.2247V318.894H61.866ZM63.0453 333.08H26.3902V335.438H63.0453V333.08ZM25.2108 334.259V364H27.5696V334.259H25.2108ZM26.3902 362.821H9.48934V365.179H26.3902V362.821ZM433.237 364L432.152 363.538L431.453 365.179H433.237V364ZM466.161 286.629V285.45H465.381L465.076 286.167L466.161 286.629ZM481.745 286.629L482.83 286.167L482.524 285.45H481.745V286.629ZM514.668 364V365.179H516.452L515.754 363.538L514.668 364ZM496.999 364L495.907 364.445L496.206 365.179H496.999V364ZM489.976 346.77L491.068 346.325L490.768 345.591H489.976V346.77ZM457.491 346.77V345.591H456.698L456.399 346.325L457.491 346.77ZM450.467 364V365.179H451.26L451.559 364.445L450.467 364ZM463.527 331.844L462.435 331.397L461.769 333.024H463.527V331.844ZM483.94 331.844V333.024H485.697L485.031 331.397L483.94 331.844ZM473.733 306.932L474.824 306.485L473.733 303.821L472.642 306.485L473.733 306.932ZM434.322 364.462L467.246 287.091L465.076 286.167L432.152 363.538L434.322 364.462ZM466.161 287.809H481.745V285.45H466.161V287.809ZM480.659 287.091L513.583 364.462L515.754 363.538L482.83 286.167L480.659 287.091ZM514.668 362.821H496.999V365.179H514.668V362.821ZM498.091 363.555L491.068 346.325L488.883 347.215L495.907 364.445L498.091 363.555ZM489.976 345.591H457.491V347.949H489.976V345.591ZM456.399 346.325L449.375 363.555L451.559 364.445L458.583 347.215L456.399 346.325ZM450.467 362.821H433.237V365.179H450.467V362.821ZM463.527 333.024H483.94V330.665H463.527V333.024ZM485.031 331.397L474.824 306.485L472.642 307.379L482.848 332.292L485.031 331.397ZM472.642 306.485L462.435 331.397L464.618 332.292L474.824 307.379L472.642 306.485ZM957.286 366.305L956.499 367.183L957.376 367.969L958.163 367.093L957.286 366.305ZM948.836 358.732L949.623 357.854L948.953 357.253L948.196 357.741L948.836 358.732ZM896.816 353.794L895.982 354.628L895.986 354.632L896.816 353.794ZM896.926 297.494L897.756 298.332L897.756 298.332L896.926 297.494ZM955.311 297.384L954.477 298.218L954.481 298.222L955.311 297.384ZM960.14 347.648L959.168 346.979L958.563 347.858L959.377 348.548L960.14 347.648ZM968.041 354.342L968.918 355.131L969.73 354.228L968.804 353.443L968.041 354.342ZM936.325 347.648L936.801 348.727L938.52 347.967L937.089 346.75L936.325 347.648ZM923.814 337.003L922.933 336.218L922.131 337.119L923.049 337.901L923.814 337.003ZM934.569 324.93L935.36 324.056L934.479 323.259L933.688 324.146L934.569 324.93ZM947.19 336.344L946.399 337.219L947.598 338.303L948.264 336.83L947.19 336.344ZM942.69 308.469L943.55 307.662L942.69 308.469ZM909.437 308.469L910.298 309.275L910.304 309.268L909.437 308.469ZM909.547 342.709L908.686 343.516L909.547 342.709ZM958.073 365.426L949.623 357.854L948.049 359.611L956.499 367.183L958.073 365.426ZM948.196 357.741C941.591 362.003 934.205 364.138 926.009 364.138V366.496C934.64 366.496 942.473 364.241 949.475 359.723L948.196 357.741ZM926.009 364.138C914.588 364.138 905.164 360.402 897.646 352.956L895.986 354.632C903.98 362.549 914.016 366.496 926.009 366.496V364.138ZM897.65 352.96C890.195 345.504 886.472 336.405 886.472 325.589H884.114C884.114 337.014 888.073 346.718 895.982 354.628L897.65 352.96ZM886.472 325.589C886.472 314.852 890.227 305.79 897.756 298.332L896.096 296.656C888.114 304.563 884.114 314.231 884.114 325.589H886.472ZM897.756 298.332C905.349 290.81 914.811 287.04 926.228 287.04V284.682C914.233 284.682 904.16 288.667 896.096 296.656L897.756 298.332ZM926.228 287.04C937.648 287.04 947.034 290.775 954.477 298.218L956.145 296.55C948.223 288.629 938.22 284.682 926.228 284.682V287.04ZM954.481 298.222C962.008 305.678 965.765 314.776 965.765 325.589H968.123C968.123 314.16 964.124 304.455 956.141 296.546L954.481 298.222ZM965.765 325.589C965.765 333.475 963.567 340.594 959.168 346.979L961.111 348.317C965.785 341.532 968.123 333.945 968.123 325.589H965.765ZM959.377 348.548L967.279 355.242L968.804 353.443L960.902 346.748L959.377 348.548ZM967.164 353.554L956.409 365.516L958.163 367.093L968.918 355.131L967.164 353.554ZM926.228 350.912C929.97 350.912 933.499 350.186 936.801 348.727L935.848 346.569C932.859 347.89 929.656 348.554 926.228 348.554V350.912ZM937.089 346.75L924.578 336.104L923.049 337.901L935.561 348.546L937.089 346.75ZM924.694 337.787L935.449 325.715L933.688 324.146L922.933 336.218L924.694 337.787ZM933.778 325.805L946.399 337.219L947.981 335.469L935.36 324.056L933.778 325.805ZM948.264 336.83C949.737 333.575 950.454 329.818 950.454 325.589H948.095C948.095 329.554 947.423 332.967 946.115 335.858L948.264 336.83ZM950.454 325.589C950.454 318.574 948.156 312.575 943.55 307.662L941.83 309.275C946.004 313.728 948.095 319.141 948.095 325.589H950.454ZM943.55 307.662C938.926 302.729 933.048 300.265 926.009 300.265V302.624C932.432 302.624 937.675 304.843 941.83 309.275L943.55 307.662ZM926.009 300.265C918.969 300.265 913.124 302.729 908.57 307.669L910.304 309.268C914.384 304.843 919.586 302.624 926.009 302.624V300.265ZM908.576 307.662C904.038 312.508 901.783 318.511 901.783 325.589H904.141C904.141 319.059 906.203 313.648 910.298 309.275L908.576 307.662ZM901.783 325.589C901.783 332.604 904.081 338.603 908.686 343.516L910.407 341.903C906.233 337.45 904.141 332.036 904.141 325.589H901.783ZM908.686 343.516C913.311 348.449 919.189 350.912 926.228 350.912V348.554C919.805 348.554 914.562 346.335 910.407 341.903L908.686 343.516Z" fill="white" mask="url(#path-7-outside-4_641_1896)"/>
</g>
<g opacity="0.3">
<mask id="path-9-outside-5_641_1896" maskUnits="userSpaceOnUse" x="7.99414" y="379" width="962" height="84" fill="black">
<rect fill="white" x="7.99414" y="379" width="962" height="84"/>
<path d="M9.48934 459V382.178H67.9839V397.542H26.3902V413.894H63.0453V429.259H26.3902V459H9.48934ZM433.237 459L466.161 381.629H481.745L514.668 459H496.999L489.976 441.77H457.491L450.467 459H433.237ZM463.527 426.844H483.94L473.733 401.932L463.527 426.844ZM957.286 461.305L948.836 453.732C942.032 458.122 934.423 460.317 926.009 460.317C914.302 460.317 904.572 456.476 896.816 448.794C889.134 441.111 885.293 431.71 885.293 420.589C885.293 409.541 889.171 400.176 896.926 392.494C904.755 384.739 914.522 380.861 926.228 380.861C937.934 380.861 947.629 384.702 955.311 392.384C963.066 400.066 966.944 409.468 966.944 420.589C966.944 428.71 964.676 436.063 960.14 442.648L968.041 449.342L957.286 461.305ZM926.228 444.733C929.813 444.733 933.179 444.038 936.325 442.648L923.814 432.003L934.569 419.93L947.19 431.344C948.58 428.271 949.275 424.686 949.275 420.589C949.275 413.858 947.08 408.151 942.69 403.469C938.3 398.786 932.74 396.445 926.009 396.445C919.278 396.445 913.754 398.786 909.437 403.469C905.12 408.078 902.962 413.785 902.962 420.589C902.962 427.32 905.157 433.027 909.547 437.709C913.937 442.392 919.497 444.733 926.228 444.733Z"/>
</mask>
<path d="M9.48934 459H8.30998V460.179H9.48934V459ZM9.48934 382.178V380.999H8.30998V382.178H9.48934ZM67.9839 382.178H69.1633V380.999H67.9839V382.178ZM67.9839 397.542V398.722H69.1633V397.542H67.9839ZM26.3902 397.542V396.363H25.2108V397.542H26.3902ZM26.3902 413.894H25.2108V415.074H26.3902V413.894ZM63.0453 413.894H64.2247V412.715H63.0453V413.894ZM63.0453 429.259V430.438H64.2247V429.259H63.0453ZM26.3902 429.259V428.08H25.2108V429.259H26.3902ZM26.3902 459V460.179H27.5696V459H26.3902ZM10.6687 459V382.178H8.30998V459H10.6687ZM9.48934 383.357H67.9839V380.999H9.48934V383.357ZM66.8045 382.178V397.542H69.1633V382.178H66.8045ZM67.9839 396.363H26.3902V398.722H67.9839V396.363ZM25.2108 397.542V413.894H27.5696V397.542H25.2108ZM26.3902 415.074H63.0453V412.715H26.3902V415.074ZM61.866 413.894V429.259H64.2247V413.894H61.866ZM63.0453 428.08H26.3902V430.438H63.0453V428.08ZM25.2108 429.259V459H27.5696V429.259H25.2108ZM26.3902 457.821H9.48934V460.179H26.3902V457.821ZM433.237 459L432.152 458.538L431.453 460.179H433.237V459ZM466.161 381.629V380.45H465.381L465.076 381.167L466.161 381.629ZM481.745 381.629L482.83 381.167L482.524 380.45H481.745V381.629ZM514.668 459V460.179H516.452L515.754 458.538L514.668 459ZM496.999 459L495.907 459.445L496.206 460.179H496.999V459ZM489.976 441.77L491.068 441.325L490.768 440.591H489.976V441.77ZM457.491 441.77V440.591H456.698L456.399 441.325L457.491 441.77ZM450.467 459V460.179H451.26L451.559 459.445L450.467 459ZM463.527 426.844L462.435 426.397L461.769 428.024H463.527V426.844ZM483.94 426.844V428.024H485.697L485.031 426.397L483.94 426.844ZM473.733 401.932L474.824 401.485L473.733 398.821L472.642 401.485L473.733 401.932ZM434.322 459.462L467.246 382.091L465.076 381.167L432.152 458.538L434.322 459.462ZM466.161 382.809H481.745V380.45H466.161V382.809ZM480.659 382.091L513.583 459.462L515.754 458.538L482.83 381.167L480.659 382.091ZM514.668 457.821H496.999V460.179H514.668V457.821ZM498.091 458.555L491.068 441.325L488.883 442.215L495.907 459.445L498.091 458.555ZM489.976 440.591H457.491V442.949H489.976V440.591ZM456.399 441.325L449.375 458.555L451.559 459.445L458.583 442.215L456.399 441.325ZM450.467 457.821H433.237V460.179H450.467V457.821ZM463.527 428.024H483.94V425.665H463.527V428.024ZM485.031 426.397L474.824 401.485L472.642 402.379L482.848 427.292L485.031 426.397ZM472.642 401.485L462.435 426.397L464.618 427.292L474.824 402.379L472.642 401.485ZM957.286 461.305L956.499 462.183L957.376 462.969L958.163 462.093L957.286 461.305ZM948.836 453.732L949.623 452.854L948.953 452.253L948.196 452.741L948.836 453.732ZM896.816 448.794L895.982 449.628L895.986 449.632L896.816 448.794ZM896.926 392.494L897.756 393.332L897.756 393.332L896.926 392.494ZM955.311 392.384L954.477 393.218L954.481 393.222L955.311 392.384ZM960.14 442.648L959.168 441.979L958.563 442.858L959.377 443.548L960.14 442.648ZM968.041 449.342L968.918 450.131L969.73 449.228L968.804 448.443L968.041 449.342ZM936.325 442.648L936.801 443.727L938.52 442.967L937.089 441.75L936.325 442.648ZM923.814 432.003L922.933 431.218L922.131 432.119L923.049 432.901L923.814 432.003ZM934.569 419.93L935.36 419.056L934.479 418.259L933.688 419.146L934.569 419.93ZM947.19 431.344L946.399 432.219L947.598 433.303L948.264 431.83L947.19 431.344ZM942.69 403.469L943.55 402.662L942.69 403.469ZM909.437 403.469L910.298 404.275L910.304 404.268L909.437 403.469ZM909.547 437.709L908.686 438.516L909.547 437.709ZM958.073 460.426L949.623 452.854L948.049 454.611L956.499 462.183L958.073 460.426ZM948.196 452.741C941.591 457.003 934.205 459.138 926.009 459.138V461.496C934.64 461.496 942.473 459.241 949.475 454.723L948.196 452.741ZM926.009 459.138C914.588 459.138 905.164 455.402 897.646 447.956L895.986 449.632C903.98 457.549 914.016 461.496 926.009 461.496V459.138ZM897.65 447.96C890.195 440.504 886.472 431.405 886.472 420.589H884.114C884.114 432.014 888.073 441.718 895.982 449.628L897.65 447.96ZM886.472 420.589C886.472 409.852 890.227 400.79 897.756 393.332L896.096 391.656C888.114 399.563 884.114 409.231 884.114 420.589H886.472ZM897.756 393.332C905.349 385.81 914.811 382.04 926.228 382.04V379.682C914.233 379.682 904.16 383.667 896.096 391.656L897.756 393.332ZM926.228 382.04C937.648 382.04 947.034 385.775 954.477 393.218L956.145 391.55C948.223 383.629 938.22 379.682 926.228 379.682V382.04ZM954.481 393.222C962.008 400.678 965.765 409.776 965.765 420.589H968.123C968.123 409.16 964.124 399.455 956.141 391.546L954.481 393.222ZM965.765 420.589C965.765 428.475 963.567 435.594 959.168 441.979L961.111 443.317C965.785 436.532 968.123 428.945 968.123 420.589H965.765ZM959.377 443.548L967.279 450.242L968.804 448.443L960.902 441.748L959.377 443.548ZM967.164 448.554L956.409 460.516L958.163 462.093L968.918 450.131L967.164 448.554ZM926.228 445.912C929.97 445.912 933.499 445.186 936.801 443.727L935.848 441.569C932.859 442.89 929.656 443.554 926.228 443.554V445.912ZM937.089 441.75L924.578 431.104L923.049 432.901L935.561 443.546L937.089 441.75ZM924.694 432.787L935.449 420.715L933.688 419.146L922.933 431.218L924.694 432.787ZM933.778 420.805L946.399 432.219L947.981 430.469L935.36 419.056L933.778 420.805ZM948.264 431.83C949.737 428.575 950.454 424.818 950.454 420.589H948.095C948.095 424.554 947.423 427.967 946.115 430.858L948.264 431.83ZM950.454 420.589C950.454 413.574 948.156 407.575 943.55 402.662L941.83 404.275C946.004 408.728 948.095 414.141 948.095 420.589H950.454ZM943.55 402.662C938.926 397.729 933.048 395.265 926.009 395.265V397.624C932.432 397.624 937.675 399.843 941.83 404.275L943.55 402.662ZM926.009 395.265C918.969 395.265 913.124 397.729 908.57 402.669L910.304 404.268C914.384 399.843 919.586 397.624 926.009 397.624V395.265ZM908.576 402.662C904.038 407.508 901.783 413.511 901.783 420.589H904.141C904.141 414.059 906.203 408.648 910.298 404.275L908.576 402.662ZM901.783 420.589C901.783 427.604 904.081 433.603 908.686 438.516L910.407 436.903C906.233 432.45 904.141 427.036 904.141 420.589H901.783ZM908.686 438.516C913.311 443.449 919.189 445.912 926.228 445.912V443.554C919.805 443.554 914.562 441.335 910.407 436.903L908.686 438.516Z" fill="white" mask="url(#path-9-outside-5_641_1896)"/>
</g>
</g>
</svg>
